# xmcd
#
# Track frame offsets:
#	150
#	27792
#	65659
#	84092
#	99390
#	125387
#
# Disc length: 1984 seconds
#
# Revision: 1
# Processed by: cddbd v1.5.2PL0 Copyright (c) Steve Scherf et al.
# Submitted via: audiograbber 1.83.01
#
DISCID=3f07be06
DTITLE=Nina Simone - Berkeley Concert
DYEAR=1977
DGENRE=Blues
TTITLE0=Ain't Got No/I Got Life
TTITLE1=Four Woman
TTITLE2=No Opportunity Necessary, No Experience Needed
TTITLE3=Backlash Blues
TTITLE4=The Assignment Song
TTITLE5=To Be Young, Gifted And Black
EXTD=
EXTT0=
EXTT1=
EXTT2=
EXTT3=
EXTT4=
EXTT5=
PLAYORDER=
